<?xml version="1.0" encoding="UTF-8" standalone="no"?>
<!-- Created with Inkscape (http://www.inkscape.org/) -->

<svg
   width="136.0522mm"
   height="135.97108mm"
   viewBox="0 0 136.0522 135.97108"
   version="1.1"
   id="svg535"
   inkscape:version="1.2.2 (732a01da63, 2022-12-09)"
   sodipodi:docname="connection.svg"
   xmlns:inkscape="http://www.inkscape.org/namespaces/inkscape"
   xmlns:sodipodi="http://sodipodi.sourceforge.net/DTD/sodipodi-0.dtd"
   xmlns="http://www.w3.org/2000/svg"
   xmlns:svg="http://www.w3.org/2000/svg">
  <sodipodi:namedview
     id="namedview537"
     pagecolor="#505050"
     bordercolor="#eeeeee"
     borderopacity="1"
     inkscape:showpageshadow="0"
     inkscape:pageopacity="0"
     inkscape:pagecheckerboard="0"
     inkscape:deskcolor="#505050"
     inkscape:document-units="mm"
     showgrid="false"
     inkscape:zoom="0.78127806"
     inkscape:cx="330.22814"
     inkscape:cy="323.82837"
     inkscape:window-width="2560"
     inkscape:window-height="1057"
     inkscape:window-x="1358"
     inkscape:window-y="-8"
     inkscape:window-maximized="1"
     inkscape:current-layer="layer1" />
  <defs
     id="defs532" />
  <g
     inkscape:label="Camada 1"
     inkscape:groupmode="layer"
     id="layer1"
     transform="translate(-18.330796,-16.339431)">
    <path
       style="fill:#ffffff;stroke:#ffffff;stroke-width:1.27995;stroke-linecap:round;stroke-linejoin:round;paint-order:fill markers stroke"
       d="m 84.67422,151.55886 c -6.015003,-0.79618 -9.810522,-7.70209 -7.256028,-13.20226 1.121087,-2.41385 3.691408,-4.84711 5.720135,-5.41512 l 1.535893,-0.43003 v -3.1732 -3.17321 h -1.191201 c -1.420297,0 -6.903448,-1.13775 -9.981986,-2.07125 -3.495394,-1.05991 -8.71044,-3.80251 -12.139843,-6.38434 -1.73971,-1.30975 -3.26549,-2.38135 -3.39065,-2.38135 -0.39821,0 -10.54832,10.32011 -10.54832,10.725 0,0.21345 0.37735,1.12603 0.83855,2.02795 1.69776,3.32014 1.63492,7.77076 -0.15937,11.28786 -0.98546,1.93166 -3.29096,4.16761 -5.47537,5.3102 -1.64428,0.86007 -2.12878,0.94547 -5.36344,0.94547 -3.23507,0 -3.71903,-0.0853 -5.36436,-0.94594 -4.10974,-2.14962 -6.778,-6.06373 -7.08809,-10.39762 -0.35065,-4.90084 2.40618,-9.53161 7.10646,-11.93704 1.93248,-0.98897 2.41048,-1.08943 5.18378,-1.08943 2.7852,0 3.25996,0.10089 5.37545,1.14235 l 2.32044,1.14235 5.42974,-5.42974 5.42973,-5.42974 -1.54975,-1.77159 c -4.62415,-5.2861 -8.64995,-14.826606 -9.24555,-21.91047 l -0.23491,-2.793899 h -3.18412 c -2.73585,0 -3.2103,0.08343 -3.37014,0.592645 -0.88574,2.821747 -2.60935,4.884163 -5.21119,6.235552 -1.22735,0.637479 -2.05122,0.791101 -4.23318,0.789342 -3.3049,-0.0027 -5.33622,-0.893995 -7.32047,-3.212148 -2.27169,-2.653958 -2.93537,-6.236739 -1.78223,-9.621033 0.80926,-2.37505 3.56373,-5.069768 5.8876,-5.759883 3.67157,-1.090343 6.97479,-0.451803 9.59529,1.854856 1.56889,1.380995 2.93281,3.580045 2.93281,4.728588 0,0.618366 0.24319,0.666882 3.34282,0.666882 h 3.34281 l 0.23491,-2.793899 c 0.5956,-7.083864 4.6214,-16.624369 9.24555,-21.910466 l 1.54975,-1.7716 -5.42973,-5.429736 -5.42974,-5.429734 -2.32044,1.142346 c -2.11549,1.041456 -2.59025,1.142346 -5.37545,1.142346 -2.7733,0 -3.2513,-0.100454 -5.18378,-1.089424 -2.1836,-1.117486 -3.97789,-2.745862 -5.32988,-4.837028 -3.81145,-5.895279 -1.35839,-14.088234 5.21559,-17.419517 2.09823,-1.06326 3.27351,-1.11263 3.78389,-0.15897 0.64111,1.197927 0.13049,2.206526 -1.43403,2.832523 -2.12785,0.851397 -3.93014,2.436442 -4.86252,4.276404 -0.66587,1.31403 -0.83208,2.15432 -0.83208,4.206685 0,3.636896 1.09432,5.592294 4.24945,7.593221 1.48183,0.939745 1.90426,1.040236 4.3729,1.040236 4.08819,0 6.45796,-1.448742 8.12339,-4.966192 1.68282,-3.554153 0.83628,-7.682137 -2.15202,-10.493938 -1.42724,-1.342941 -1.79249,-2.624106 -0.97981,-3.436789 0.79564,-0.79564 1.91059,-0.41463 3.59892,1.229854 2.03221,1.979427 3.00524,3.799422 3.6279,6.785711 0.40253,1.930511 0.40061,2.579563 -0.0134,4.558553 -0.26554,1.269148 -0.79326,2.809878 -1.17271,3.423844 -0.37945,0.613965 -0.68992,1.32875 -0.68992,1.58841 0,0.455562 10.11081,10.792872 10.55639,10.792872 0.12072,0 1.64287,-1.071604 3.38258,-2.381347 3.429403,-2.581842 8.644449,-5.324433 12.139844,-6.384341 3.078538,-0.933505 8.561689,-2.071256 9.981985,-2.071256 h 1.191202 V 39.344174 36.170968 L 83.138378,35.740946 C 81.109651,35.172936 78.53933,32.739671 77.418242,30.325819 75.308151,25.782506 77.362122,20.3243 82.091199,17.90795 c 2.354655,-1.20312 6.198032,-1.20312 8.552686,0 4.729077,2.41635 6.783051,7.874556 4.672959,12.417869 -1.121089,2.413852 -3.691408,4.847117 -5.720135,5.415127 l -1.535893,0.430022 v 3.173206 3.173206 h 1.191199 c 1.420297,0 6.90345,1.137751 9.981988,2.071256 3.495397,1.059908 8.710437,3.802499 12.139847,6.384341 1.7397,1.309743 3.26549,2.381347 3.39064,2.381347 0.39822,0 10.54832,-10.320115 10.54832,-10.724999 0,-0.21345 -0.37735,-1.126029 -0.83854,-2.027954 -1.69776,-3.320132 -1.63492,-7.77076 0.15937,-11.287858 0.98546,-1.931665 3.29095,-4.167611 5.47537,-5.310193 1.64428,-0.86007 2.12878,-0.94548 5.36344,-0.94548 3.23506,0 3.71903,0.0853 5.36435,0.94594 4.10975,2.149624 6.77801,6.063735 7.0881,10.397626 0.35065,4.900837 -2.40618,9.531603 -7.10647,11.937039 -1.93247,0.98897 -2.41047,1.089424 -5.18378,1.089424 -2.78519,0 -3.25995,-0.10089 -5.37545,-1.142346 l -2.32043,-1.142346 -5.42974,5.429734 -5.42974,5.429736 1.52875,1.747587 c 1.80057,2.05832 4.78691,6.990535 6.25793,10.335561 1.43125,3.254568 2.72708,8.250301 3.00863,11.598918 l 0.2349,2.793899 h 3.34282 c 3.09962,0 3.34282,-0.04852 3.34282,-0.666882 0,-1.848033 2.41504,-4.777243 5.07982,-6.161315 2.22022,-1.153173 6.27422,-1.127509 8.59458,0.05441 5.57208,2.838259 7.02465,10.154644 2.95907,14.904375 -1.98426,2.318153 -4.01557,3.209476 -7.32047,3.212148 -3.02401,0.0024 -4.82527,-0.689467 -6.85863,-2.634562 -1.24473,-1.190697 -2.45437,-3.317891 -2.45437,-4.316095 0,-0.618366 -0.2432,-0.666882 -3.34282,-0.666882 h -3.34282 l -0.2349,2.793899 c -0.28155,3.348617 -1.57738,8.34435 -3.00863,11.598922 -1.47102,3.34502 -4.45736,8.27724 -6.25793,10.33556 l -1.52875,1.74758 5.42974,5.42974 5.42974,5.42973 2.3144,-1.13937 c 2.87385,-1.41479 6.37951,-1.73957 8.79981,-0.81525 2.01357,0.76899 2.69412,1.98258 1.68031,2.9964 -0.39769,0.39769 -1.20009,0.46037 -4.03862,0.3155 -3.20453,-0.16355 -3.68199,-0.10879 -5.00685,0.57421 -2.06223,1.06313 -3.1585,2.19891 -4.1561,4.30588 -1.6155,3.41198 -0.86869,7.53673 1.84184,10.1729 3.27483,3.18499 8.66728,3.26765 12.07449,0.18509 2.3404,-2.11742 2.89941,-3.63972 2.77661,-7.56139 -0.11504,-3.67385 0.0807,-4.15549 1.61766,-3.9794 1.44534,0.16559 1.99141,1.54415 1.98913,5.02163 -0.002,2.59208 -0.11582,3.10601 -1.14686,5.16397 -1.2984,2.59163 -3.20893,4.51896 -5.84779,5.89923 -1.64532,0.8606 -2.12929,0.94594 -5.36435,0.94594 -3.23466,0 -3.71916,-0.0854 -5.36344,-0.94547 -2.18507,-1.14293 -4.48998,-3.37867 -5.47623,-5.31188 -0.39968,-0.78344 -0.9379,-2.4374 -1.19605,-3.67546 -0.40252,-1.93051 -0.40061,-2.57955 0.0134,-4.55855 0.26554,-1.26915 0.79326,-2.80988 1.17272,-3.42384 0.37945,-0.61397 0.68992,-1.32875 0.68992,-1.58841 0,-0.45556 -10.11081,-10.79287 -10.55639,-10.79287 -0.12072,0 -1.64287,1.0716 -3.38258,2.38134 -3.4294,2.58184 -8.64445,5.32444 -12.139842,6.38434 -3.078538,0.93351 -8.561692,2.07126 -9.981988,2.07126 h -1.191199 v 3.17321 3.1732 l 1.535893,0.43002 c 2.028727,0.56801 4.599045,3.00128 5.720135,5.41513 1.16296,2.50401 1.163347,4.94468 0.0011,7.4504 -2.018556,4.35215 -5.796092,6.39352 -10.643753,5.75186 z m 5.234522,-4.32524 c 1.964701,-1.54543 2.554531,-2.7264 2.554531,-5.11475 0,-1.82809 -0.15173,-2.42086 -0.893715,-3.49155 -1.329227,-1.91807 -2.9669,-2.79934 -5.202065,-2.79934 -2.235168,0 -3.872839,0.88127 -5.202066,2.79934 -1.237927,1.78633 -1.287549,5.15966 -0.09959,6.76985 1.694288,2.29648 2.732913,2.78832 5.657839,2.67926 1.702427,-0.0635 2.44366,-0.25962 3.185066,-0.84281 z M 41.1082,141.57434 c 4.27484,-2.02855 6.15541,-7.44632 4.09511,-11.79772 -1.66543,-3.51745 -4.0352,-4.9662 -8.12339,-4.9662 -2.46864,0 -2.89107,0.10049 -4.3729,1.04024 -1.8681,1.18472 -2.62715,1.98453 -3.57982,3.7721 -0.95811,1.79777 -0.93567,5.85811 0.0432,7.81604 0.89264,1.78545 3.10125,3.80926 4.87497,4.46708 1.74353,0.64662 5.35917,0.4769 7.06283,-0.33154 z m 54.0651,-19.96047 c 3.85809,-0.99074 5.52712,-1.58386 8.26274,-2.93629 6.24788,-3.08881 12.55823,-8.93195 15.85618,-14.6822 1.11255,-1.93982 3.3113,-6.656072 3.3113,-7.10262 0,-0.245631 0.21429,-0.960493 0.47619,-1.588585 0.80439,-1.929053 1.55574,-7.22367 1.55574,-10.962965 0,-3.739293 -0.75135,-9.033909 -1.55574,-10.962963 -0.2619,-0.628091 -0.47619,-1.342805 -0.47619,-1.588254 0,-0.447259 -2.67733,-6.167508 -3.47169,-7.417416 -3.83147,-6.028801 -9.70659,-11.406812 -15.69579,-14.36774 -2.73562,-1.352428 -4.40465,-1.945545 -8.26274,-2.93629 -2.773551,-0.712237 -3.986049,-0.825966 -8.805807,-0.825966 -5.733561,0 -8.918014,0.517647 -13.512678,2.196544 -7.411196,2.708064 -14.658605,8.706311 -19.251665,15.933452 -0.79435,1.249908 -3.47169,6.970157 -3.47169,7.417416 0,0.245449 -0.21428,0.960163 -0.47619,1.588254 -0.80439,1.929054 -1.55574,7.22367 -1.55574,10.962963 0,3.739295 0.75135,9.033912 1.55574,10.962965 0.26191,0.628092 0.47619,1.342806 0.47619,1.588252 0,0.411363 2.54846,5.849843 3.4875,7.442403 3.95534,6.70808 11.782817,13.1819 19.235855,15.90927 4.627652,1.69345 7.438032,2.15126 13.344138,2.17379 5.043519,0.0192 6.156987,-0.0805 8.974347,-0.80402 z M 31.08063,90.085423 c 1.71446,-0.716352 2.43757,-1.432574 3.17795,-3.147716 0.80199,-1.857825 0.80199,-3.335166 0,-5.192991 -0.74038,-1.715143 -1.46349,-2.431367 -3.17795,-3.147716 -2.84132,-1.18718 -6.06683,-0.167566 -7.72091,2.440649 -3.26382,5.146506 2.07749,11.405743 7.72091,9.047774 z m 115.48118,0 c 1.61232,-0.673667 2.27446,-1.292479 3.12114,-2.916857 1.63672,-3.14013 0.31112,-6.967979 -2.92332,-8.441436 -2.32246,-1.058002 -5.17251,-0.662913 -7.00088,0.970497 -0.89197,0.796856 -1.91577,3.278431 -1.91577,4.643583 0,1.363723 1.02352,3.846483 1.91345,4.641488 1.74495,1.558811 4.60476,2.022205 6.80538,1.102725 z m -6.53385,-47.25366 c 3.15581,-2.001353 4.24945,-3.956126 4.24945,-7.595454 0,-3.074265 -0.72258,-4.782392 -2.82941,-6.688484 -3.404,-3.079666 -8.95182,-2.982749 -12.14676,0.212196 -2.64505,2.645055 -3.36543,6.775285 -1.76957,10.145786 1.66544,3.51745 4.0352,4.966192 8.1234,4.966192 2.46863,0 2.89107,-0.100491 4.37289,-1.040236 z M 89.581585,32.021021 c 0.60184,-0.371957 1.496425,-1.25662 1.987973,-1.965921 1.237927,-1.786329 1.28755,-5.15966 0.09959,-6.76985 -1.60161,-2.17086 -2.495465,-2.61108 -5.301657,-2.61108 -2.806192,0 -3.700047,0.44022 -5.301657,2.61108 -1.181934,1.60202 -1.138143,4.983797 0.08744,6.752309 2.013154,2.904982 5.579341,3.744224 8.428313,1.983462 z"
       id="path524" />
    <path
       style="fill:#ffffff;stroke:#ffffff;stroke-width:1.27995;stroke-linecap:round;stroke-linejoin:round;paint-order:fill markers stroke"
       d="m 62.81107,108.07501 c -0.59647,-0.43553 -0.66729,-0.99708 -0.76438,-6.06161 -0.0589,-3.069881 0.0463,-6.687582 0.23358,-8.03933 0.56605,-4.084712 2.676648,-7.527777 5.848716,-9.541134 1.462707,-0.928402 4.898107,-1.954324 6.544244,-1.954324 0.844044,0 1.534628,-0.09091 1.534628,-0.202025 0,-0.111114 -0.606769,-0.89135 -1.348372,-1.733854 -4.705355,-5.345568 -4.623065,-14.004478 0.183904,-19.350982 6.283695,-6.988982 16.329631,-7.027778 22.569844,-0.08716 4.873756,5.420786 5.010476,14.0711 0.306539,19.394059 -0.765956,0.866751 -1.392645,1.666822 -1.392645,1.777936 0,0.111114 0.690583,0.202025 1.534631,0.202025 1.78844,0 5.094011,1.041064 6.873721,2.164832 1.45889,0.921184 3.2581,2.935401 4.11635,4.608258 1.42592,2.77931 1.69879,4.611481 1.69879,11.406389 0,6.09076 -0.0468,6.58905 -0.67731,7.21961 -0.64498,0.64497 -1.12885,0.67731 -10.135447,0.67731 -10.212935,0 -10.522481,-0.0535 -10.522481,-1.81906 0,-1.292 0.636844,-1.56749 3.623603,-1.56749 h 2.810833 v -2.14876 c 0,-2.31855 0.562152,-3.269711 1.932464,-3.269711 1.069893,0 1.409136,0.682821 1.520724,3.060881 l 0.102685,2.18826 3.835899,0.096 3.8359,0.096 -0.1107,-6.53043 -0.1107,-6.530432 -1.11861,-1.759956 c -0.70392,-1.107503 -1.77106,-2.174642 -2.87856,-2.878561 l -1.75996,-1.11861 H 86.367493 71.636022 l -1.759953,1.11861 c -1.107506,0.703919 -2.174644,1.771058 -2.878563,2.878561 l -1.118611,1.759956 -0.110701,6.530432 -0.110699,6.53043 3.8359,-0.096 3.8359,-0.096 0.102682,-2.18826 c 0.113099,-2.41022 0.448873,-3.060881 1.579568,-3.060881 1.299477,0 1.873623,1.019991 1.873623,3.328551 v 2.08992 h 2.81083 c 2.986759,0 3.623603,0.27549 3.623603,1.56749 0,1.76423 -0.3152,1.81906 -10.457751,1.81906 -7.571325,0 -9.52092,-0.0931 -10.05078,-0.48 z M 90.965687,81.605403 c 2.531199,-1.157796 4.536461,-3.061685 5.752554,-5.461733 0.892345,-1.761117 0.994178,-2.291636 0.994178,-5.179312 0,-2.88844 -0.101706,-3.41794 -0.995217,-5.181364 -1.126885,-2.223995 -3.27923,-4.315092 -5.57512,-5.416465 -2.241733,-1.075397 -7.307445,-1.075397 -9.549178,0 -2.29589,1.101373 -4.448238,3.19247 -5.575117,5.416465 -0.893517,1.763424 -0.99522,2.292924 -0.99522,5.181364 0,2.871037 0.104593,3.423632 0.972021,5.135515 1.231688,2.430756 2.927813,4.088307 5.482399,5.357717 1.727648,0.858494 2.405312,1.001266 4.795806,1.010394 2.287331,0.0087 3.124359,-0.145119 4.692894,-0.862581 z"
       id="path526" />
  </g>
</svg>
