<?xml version="1.0" encoding="UTF-8" standalone="no"?>
<!-- Created with Inkscape (http://www.inkscape.org/) -->

<svg
   width="265.73105mm"
   height="77.035713mm"
   viewBox="0 0 265.73105 77.035713"
   version="1.1"
   id="svg5"
   xml:space="preserve"
   inkscape:version="1.2.2 (732a01da63, 2022-12-09)"
   sodipodi:docname="formas_pagamento.svg"
   xmlns:inkscape="http://www.inkscape.org/namespaces/inkscape"
   xmlns:sodipodi="http://sodipodi.sourceforge.net/DTD/sodipodi-0.dtd"
   xmlns="http://www.w3.org/2000/svg"
   xmlns:svg="http://www.w3.org/2000/svg"><sodipodi:namedview
     id="namedview7"
     pagecolor="#505050"
     bordercolor="#eeeeee"
     borderopacity="1"
     inkscape:showpageshadow="0"
     inkscape:pageopacity="0"
     inkscape:pagecheckerboard="0"
     inkscape:deskcolor="#505050"
     inkscape:document-units="mm"
     showgrid="false"
     inkscape:zoom="0.78127806"
     inkscape:cx="609.25812"
     inkscape:cy="307.18897"
     inkscape:window-width="2560"
     inkscape:window-height="1057"
     inkscape:window-x="1358"
     inkscape:window-y="-8"
     inkscape:window-maximized="1"
     inkscape:current-layer="g316" /><defs
     id="defs2">
	
	

		
		
		
	
		
	
			
			
			
			
			
			
		</defs><g
     inkscape:label="Camada 1"
     inkscape:groupmode="layer"
     id="layer1"
     transform="translate(320.14295,-461.13586)"><g
       id="g316"
       transform="matrix(0.26458333,0,0,0.26458333,-965.77864,-7.2613823)"><g
         id="g2157"
         transform="translate(48.606913)"><g
           id="g452"
           transform="matrix(0.73688006,0,0,0.73688006,1002.2523,293.14644)"><path
             d="m 1969.5137,2004.6327 h 2.009 v 68.7272 h -2.009 z m 4.018,0 h 2.009 v 68.7272 h -2.009 z m 12.0626,0 h 2.009 v 68.7272 h -2.009 z m 39.1052,0 h 2.009 v 68.7272 h -2.009 z m 13.0734,0 h 2.009 v 68.7272 h -2.009 z m 12.6768,0 h 2.009 v 68.7272 h -2.009 z m 3.2673,0 h 2.009 v 68.7272 h -2.009 z m 3.2715,0 h 2.009 v 68.7272 h -2.009 z m 3.6768,0 h 2.009 v 68.7272 h -2.009 z m 3.6768,0 h 2.009 v 68.7272 h -2.009 z m 10.2199,0 h 2.009 v 68.7272 h -2.009 z m 25.3407,0 h 2.009 v 68.7272 h -2.009 z m 26.4327,0 h 2.009 v 68.7272 h -2.009 z m 7.2298,0 h 2.009 v 68.7272 h -2.009 z m 5.2251,0 h 2.009 v 68.7272 h -2.009 z m 3.2161,0 h 2.009 v 68.7272 h -2.009 z m -143.1467,0 h 2.009 v 68.7272 h -2.009 z m -20.1028,0 h 3.617 v 68.7272 h -3.617 z m 23.8734,0 h 3.617 v 68.7272 h -3.617 z m 16.763,0 h 3.6171 v 68.7272 h -3.6171 z m 8.582,0 h 3.617 v 68.7272 h -3.617 z m 13.4872,0 h 3.617 v 68.7272 h -3.617 z m 38.4525,0 h 5.6261 v 68.7272 h -5.6261 z m 7.3493,0 h 4.4232 v 68.7272 h -4.4232 z m 7.7545,0 h 3.6171 v 68.7272 h -3.6171 z m 10.254,0 h 6.0313 v 68.7272 h -6.0313 z m 11.8109,0 h 6.0313 v 68.7272 h -6.0313 z m -127.4714,0 h 7.2341 v 68.7272 h -7.2341 z m 18.7507,0 h 5.626 v 68.7272 h -5.626 z"
             id="path4"
             inkscape:connector-curvature="0"
             style="fill:#ffffff;stroke-width:4.84155"
             inkscape:export-filename="G:\Users\suitedoalex\sites\boleto-logo-5.png"
             inkscape:export-xdpi="1.4072399"
             inkscape:export-ydpi="1.4072399" /><path
             d="m 1969.203,2134.3823 v -39.337 h 11.4569 a 14.178183,18.267159 0 0 1 5.6132,1.1925 7.2170538,9.2984459 0 0 1 3.31,3.6765 7.5198968,9.6886286 0 0 1 1.1986,5.1933 6.9227413,8.9192539 0 0 1 -1.0621,4.7481 7.5838782,9.7710621 0 0 1 -3.2076,3.5941 7.9762941,10.276651 0 0 1 4.2654,3.5666 7.417527,9.5567354 0 0 1 1.4886,5.9572 8.9189474,11.491164 0 0 1 -0.9042,5.1383 7.7203707,9.946919 0 0 1 -2.2479,3.6655 9.3454876,12.040718 0 0 1 -3.3441,1.9454 20.328887,26.191721 0 0 1 -4.9222,0.6595 z m 4.0436,-22.8065 h 6.6029 a 14.732685,18.981579 0 0 0 3.8388,-0.4561 4.2653981,5.4955353 0 0 0 2.3204,-1.9564 4.3805639,5.6439147 0 0 0 0.7806,-3.4347 4.9094732,6.3253611 0 0 0 -0.7294,-3.4457 3.6895694,4.753638 0 0 0 -2.0645,-2.0443 17.394294,22.410793 0 0 0 -4.6449,-0.5496 h -6.1039 z m 0,18.1683 h 7.601 a 17.488132,22.531694 0 0 0 2.7511,-0.1869 6.5857747,8.4851064 0 0 0 2.3332,-1.0991 4.4232178,5.6988701 0 0 0 1.5398,-2.1982 5.314686,6.8474369 0 0 0 0.6057,-3.2973 5.0715583,6.5341914 0 0 0 -0.8744,-3.8469 4.6151608,5.9461692 0 0 0 -2.4269,-2.2806 15.044059,19.382753 0 0 0 -4.4659,-0.6595 h -7.0635 z m 24.9227,-14.5192 a 16.592399,21.377632 0 0 1 4.082,-15.3381 13.879605,17.882472 0 0 1 10.5398,-5.5395 14.621785,18.838695 0 0 1 7.6223,2.6049 13.192876,16.99769 0 0 1 5.1739,7.2596 18.298558,23.575846 0 0 1 1.7787,10.5569 17.991449,23.180168 0 0 1 -1.8724,10.7053 12.796195,16.486606 0 0 1 -5.3105,7.1442 15.172021,19.547619 0 0 1 -7.4132,2.4291 14.438372,18.602387 0 0 1 -7.7033,-2.6764 13.401881,17.266971 0 0 1 -5.1483,-7.331 17.232208,22.201962 0 0 1 -1.749,-9.815 z m 4.1673,0.082 a 12.233162,15.761195 0 0 0 2.9858,11.2054 9.7634965,12.579281 0 0 0 7.4474,4.0942 9.7464348,12.557298 0 0 0 7.4815,-4.1382 12.966811,16.706428 0 0 0 2.9474,-11.7274 15.641215,20.152128 0 0 0 -1.2412,-8.3862 9.6824534,12.474865 0 0 0 -3.6853,-5.556 9.9938277,12.876039 0 0 0 -5.4469,-1.9729 10.330794,13.310186 0 0 0 -7.3833,3.7974 13.163018,16.959221 0 0 0 -3.1053,12.6782 z m 31.6536,19.075 v -39.337 h 4.0393 v 34.6933 h 15.0355 v 4.6437 z m 25.5497,0 v -39.337 h 22.0777 v 4.6437 h -18.0384 v 12.0462 h 16.891 v 4.6163 h -16.891 v 13.3871 h 18.7464 v 4.6437 z m 37.7146,0 v -34.6933 h -10.062 v -4.6437 h 24.2018 v 4.6437 h -10.1004 v 34.6933 z m 17.8635,-19.1574 a 16.592399,21.377632 0 0 1 4.0905,-15.3381 13.879605,17.882472 0 0 1 10.5398,-5.5395 14.621785,18.838695 0 0 1 7.6223,2.6049 13.192876,16.99769 0 0 1 5.1739,7.2596 18.298558,23.575846 0 0 1 1.7787,10.5569 17.991449,23.180168 0 0 1 -1.8725,10.7053 12.796195,16.486606 0 0 1 -5.3275,7.1497 15.172021,19.547619 0 0 1 -7.4132,2.4291 14.438372,18.602387 0 0 1 -7.7076,-2.6819 13.401881,17.266971 0 0 1 -5.1356,-7.331 17.232208,22.201962 0 0 1 -1.7488,-9.815 z m 4.1673,0.082 a 12.233162,15.761195 0 0 0 2.9858,11.2054 9.7634965,12.579281 0 0 0 7.4474,4.0942 9.7464348,12.557298 0 0 0 7.5071,-4.1327 12.966811,16.706428 0 0 0 2.9474,-11.7274 15.641215,20.152128 0 0 0 -1.2796,-8.3862 9.6824534,12.474865 0 0 0 -3.6853,-5.556 9.9938277,12.876039 0 0 0 -5.447,-1.9729 10.330794,13.310186 0 0 0 -7.3834,3.7974 13.163018,16.959221 0 0 0 -3.0966,12.6727 z"
             id="path6"
             inkscape:connector-curvature="0"
             style="fill:#ffffff;stroke-width:4.84155"
             inkscape:export-filename="G:\Users\suitedoalex\sites\boleto-logo-5.png"
             inkscape:export-xdpi="1.4072399"
             inkscape:export-ydpi="1.4072399" /></g><g
           id="g611"
           transform="matrix(0.23771477,0,0,0.23771477,2276.3276,1275.2721)"><path
             d="m 1975.9106,2431.5738 v -194.26 a 64.71,64.71 0 0 1 64.71,-64.71 l 57.35,0.08 a 64.62,64.62 0 0 1 64.49,64.63 v 41.34 a 64.72,64.72 0 0 1 -64.71,64.72 h -81.06"
             fill="none"
             stroke="#939598"
             stroke-linecap="round"
             stroke-linejoin="round"
             stroke-width="6.26"
             id="path458"
             style="stroke:#ffffff" /><path
             d="m 2178.4906,2172.5938 h 24.88 a 26.56,26.56 0 0 1 26.56,26.56 v 145.1"
             fill="none"
             stroke="#939598"
             stroke-linecap="round"
             stroke-linejoin="round"
             stroke-width="6.26"
             id="path460"
             style="stroke:#ffffff" /><path
             d="m 2224.5906,2150.1138 -11.28,-11.29 a 7.16,7.16 0 0 1 0,-10.13 l 11.28,-11.28 a 7.18,7.18 0 0 1 10.15,0 l 11.27,11.28 a 7.16,7.16 0 0 1 0,10.13 l -11.32,11.29 a 7.17,7.17 0 0 1 -10.14,0"
             fill="#32bcad"
             id="path462"
             style="fill:#ffffff" /><path
             d="m 2277.6906,2172.4638 h 24.67 a 47.85,47.85 0 0 1 33.84,14 l 57.71,57.71 a 19.13,19.13 0 0 0 27.07,0 l 57.5,-57.49 a 47.81,47.81 0 0 1 33.83,-14 h 20.06"
             fill="none"
             stroke="#939598"
             stroke-linecap="round"
             stroke-linejoin="round"
             stroke-width="6.26"
             id="path464"
             style="stroke:#ffffff" /><path
             d="m 2277.6906,2342.9838 h 24.67 a 47.86,47.86 0 0 0 33.84,-14 l 57.71,-57.71 a 19.15,19.15 0 0 1 27.07,0 l 57.5,57.5 a 47.84,47.84 0 0 0 33.83,14 h 20.06"
             fill="none"
             stroke="#939598"
             stroke-linecap="round"
             stroke-linejoin="round"
             stroke-width="6.26"
             id="path466"
             style="stroke:#ffffff" /><path
             d="m 1828.8206,2379.8438 a 46.07,46.07 0 0 1 -32.78,-13.53 l -47.35,-47.38 a 9,9 0 0 0 -12.44,0 l -47.51,47.51 a 46.09,46.09 0 0 1 -32.78,13.57 h -9.27 l 60,60 a 48,48 0 0 0 67.81,0 l 60.12,-60.13 z"
             fill="#32bcad"
             id="path468"
             style="fill:#ffffff" /><path
             d="m 1655.9706,2212.4038 a 46.08,46.08 0 0 1 32.78,13.57 l 47.51,47.52 a 8.81,8.81 0 0 0 12.44,0 l 47.34,-47.34 a 46,46 0 0 1 32.78,-13.58 h 5.7 l -60.12,-60.12 a 47.94,47.94 0 0 0 -67.81,0 l -59.9,59.95 z"
             fill="#32bcad"
             id="path470"
             style="fill:#ffffff" /><path
             d="m 1884.2506,2262.3138 -36.33,-36.33 a 7,7 0 0 1 -2.58,0.52 h -16.52 a 32.62,32.62 0 0 0 -22.93,9.5 l -47.34,47.31 a 22.74,22.74 0 0 1 -32.13,0 l -47.52,-47.49 a 32.62,32.62 0 0 0 -22.93,-9.51 h -20.28 a 7.12,7.12 0 0 1 -2.44,-0.49 l -36.56,36.49 a 48,48 0 0 0 0,67.81 l 36.48,36.48 a 6.85,6.85 0 0 1 2.44,-0.49 h 20.36 a 32.63,32.63 0 0 0 22.93,-9.51 l 47.51,-47.51 c 8.59,-8.58 23.56,-8.58 32.14,0 l 47.34,47.33 a 32.62,32.62 0 0 0 22.93,9.5 h 16.52 a 6.9,6.9 0 0 1 2.58,0.52 l 36.33,-36.33 a 47.94,47.94 0 0 0 0,-67.81"
             fill="#32bcad"
             id="path472"
             style="fill:#ffffff" /><path
             d="m 2025.2306,2415.0638 a 42.13,42.13 0 0 0 -8.89,1.35 v 11.84 a 20.6,20.6 0 0 0 6.92,1.16 c 5.94,0 8.75,-2 8.75,-7.23 0,-4.92 -2.3,-7.12 -6.78,-7.12 m -10.89,22 v -23.43 h 1.63 l 0.17,1 a 46.87,46.87 0 0 1 9.26,-1.49 9.16,9.16 0 0 1 6.07,1.76 c 2,1.66 2.68,4.34 2.68,7.26 0,2.92 -1,5.94 -3.8,7.53 a 14.59,14.59 0 0 1 -6.89,1.53 24.82,24.82 0 0 1 -7.12,-1.09 v 6.89 z"
             fill="#939598"
             id="path474"
             style="fill:#ffffff" /><path
             d="m 2049.0506,2414.9938 c -5.93,0 -8.58,1.86 -8.58,7.09 0,5.05 2.61,7.33 8.58,7.33 5.97,0 8.55,-1.84 8.55,-7.06 0,-5.05 -2.61,-7.36 -8.55,-7.36 m 7.64,14.42 c -2,1.42 -4.62,1.83 -7.64,1.83 -3.02,0 -5.73,-0.44 -7.66,-1.83 -2.17,-1.53 -3.06,-4 -3.06,-7.19 0,-3.19 0.89,-5.67 3.06,-7.23 1.93,-1.39 4.58,-1.83 7.66,-1.83 3.08,0 5.67,0.44 7.64,1.83 2.2,1.56 3.05,4.1 3.05,7.19 0,3.09 -0.88,5.7 -3.05,7.23"
             fill="#939598"
             id="path476"
             style="fill:#ffffff" /><path
             d="m 2084.7906,2430.7638 -6.62,-14.21 h -0.13 l -6.52,14.21 h -1.83 l -7,-17.13 h 2.2 l 5.87,14.38 h 0.14 l 6.38,-14.38 h 1.83 l 6.54,14.38 h 0.14 l 5.73,-14.38 h 2.17 l -7.06,17.13 z"
             fill="#939598"
             id="path478"
             style="fill:#ffffff" /><path
             d="m 2106.4406,2414.9538 c -5.5,0 -7.36,2.45 -7.7,6 h 15.4 c -0.17,-3.9 -2.17,-6 -7.7,-6 m -0.07,16.29 c -3.29,0 -5.43,-0.48 -7.13,-1.9 -2,-1.73 -2.67,-4.24 -2.67,-7.12 0,-2.88 0.91,-5.67 3.19,-7.33 a 11.38,11.38 0 0 1 6.68,-1.73 12,12 0 0 1 6.85,1.66 c 2.47,1.66 2.95,4.58 2.95,7.9 h -17.55 c 0.07,3.53 1.22,6.65 7.87,6.65 a 51.75,51.75 0 0 0 8.85,-1 v 1.8 a 52.33,52.33 0 0 1 -9,1.05"
             fill="#939598"
             id="path480"
             style="fill:#ffffff" /><path
             d="m 2121.9906,2430.7638 v -17.13 h 1.62 l 0.17,1 c 3.63,-0.92 5.33,-1.49 8.52,-1.49 h 0.24 v 1.9 h -0.48 c -2.68,0 -4.31,0.37 -8.07,1.35 v 14.35 z"
             fill="#939598"
             id="path482"
             style="fill:#ffffff" /><path
             d="m 2144.1606,2414.9538 c -5.49,0 -7.36,2.45 -7.7,6 h 15.4 c -0.17,-3.9 -2.17,-6 -7.7,-6 m -0.07,16.29 c -3.29,0 -5.42,-0.48 -7.12,-1.9 -2,-1.73 -2.68,-4.24 -2.68,-7.12 0,-2.88 0.92,-5.67 3.19,-7.33 a 11.42,11.42 0 0 1 6.68,-1.73 12,12 0 0 1 6.85,1.66 c 2.48,1.66 3,4.58 3,7.9 h -17.62 c 0.07,3.53 1.22,6.65 7.87,6.65 a 51.76,51.76 0 0 0 8.86,-1 v 1.8 a 52.44,52.44 0 0 1 -9,1.05"
             fill="#939598"
             id="path484"
             style="fill:#ffffff" /><path
             d="m 2175.8906,2416.1438 a 20.6,20.6 0 0 0 -6.92,-1.15 c -5.94,0 -8.75,2 -8.75,7.23 0,4.95 2.31,7.12 6.78,7.12 a 44.06,44.06 0 0 0 8.89,-1.33 z m 0.38,14.62 -0.18,-1 a 46.06,46.06 0 0 1 -9.26,1.5 9,9 0 0 1 -6.07,-1.77 c -2,-1.66 -2.68,-4.34 -2.68,-7.25 0,-3.06 1,-5.94 3.8,-7.5 a 14.35,14.35 0 0 1 6.92,-1.56 26.18,26.18 0 0 1 7.09,1.08 v -7.85 h 2 v 24.35 z"
             fill="#939598"
             id="path486"
             style="fill:#ffffff" /><path
             d="m 2207.2406,2415.0638 a 42.13,42.13 0 0 0 -8.89,1.35 v 11.81 a 20,20 0 0 0 6.92,1.19 c 5.94,0 8.75,-2 8.75,-7.23 0,-4.92 -2.3,-7.12 -6.78,-7.12 m 5.12,14.65 a 14.57,14.57 0 0 1 -6.88,1.53 24.35,24.35 0 0 1 -7.67,-1.29 l -0.1,0.81 h -1.36 v -24.35 h 2 v 8.17 a 48.34,48.34 0 0 1 9.06,-1.42 9.16,9.16 0 0 1 6.07,1.76 c 2,1.66 2.68,4.34 2.68,7.26 0,2.92 -1,5.94 -3.8,7.53"
             fill="#939598"
             id="path488"
             style="fill:#ffffff" /><path
             d="m 2218.8206,2437.3138 v -1.86 c 1,0.1 1.9,0.17 2.54,0.17 2.48,0 4,-0.72 5.36,-3.53 l 0.65,-1.36 -9,-17.13 h 2.32 l 7.67,14.79 h 0.13 l 7.29,-14.79 h 2.28 l -9.64,19.24 c -1.76,3.49 -3.66,4.64 -7.16,4.64 a 19.48,19.48 0 0 1 -2.47,-0.17"
             fill="#939598"
             id="path490"
             style="fill:#ffffff" /><path
             d="m 2265.6906,2420.9938 h -6.64 v 6 h 6.64 c 4.58,0 6.31,-0.51 6.31,-3 0,-2.68 -2.38,-3 -6.35,-3 m -1.2,-9.68 h -5.42 v 6.1 h 5.46 c 4.51,0 6.31,-0.54 6.31,-3.08 0,-2.72 -2.28,-3 -6.35,-3 m 10.32,17.88 c -2.45,1.56 -5.4,1.62 -10.79,1.62 h -10.15 v -23.3 h 9.91 c 4.65,0 7.5,0.06 9.87,1.49 a 4.91,4.91 0 0 1 2.38,4.61 c 0,2.44 -1,4.07 -3.67,5.16 v 0.13 c 3,0.68 4.92,2.21 4.92,5.5 a 5,5 0 0 1 -2.47,4.72"
             fill="#939598"
             id="path492"
             style="fill:#ffffff" /><path
             d="m 2297.5306,2423.5738 c -2,-0.17 -4,-0.27 -6.17,-0.27 -3.49,0 -4.72,0.71 -4.72,2.31 0,1.6 1,2.3 3.7,2.3 a 34.52,34.52 0 0 0 7.19,-1 z m 1,7.19 -0.13,-1 a 41.11,41.11 0 0 1 -9.3,1.5 8.88,8.88 0 0 1 -5.19,-1.26 5.3,5.3 0 0 1 1,-8.78 c 1.8,-0.85 4.21,-0.92 6.42,-0.92 1.79,0 4.2,0.1 6.2,0.24 v -0.31 c 0,-2.68 -1.76,-3.56 -6.58,-3.56 -1.86,0 -4.14,0.1 -6.31,0.3 v -3.46 c 2.41,-0.2 5.13,-0.33 7.37,-0.33 3,0 6.07,0.23 8,1.59 1.93,1.36 2.34,3.33 2.34,5.87 v 10.14 z"
             fill="#939598"
             id="path494"
             style="fill:#ffffff" /><path
             d="m 2324.6906,2430.7638 v -9.45 c 0,-3.12 -1.59,-4.24 -4.44,-4.24 a 32.63,32.63 0 0 0 -7,1.08 v 12.62 h -4.78 v -17.14 h 3.9 l 0.17,1.09 a 39.6,39.6 0 0 1 9.16,-1.56 8.45,8.45 0 0 1 5.87,1.76 c 1.35,1.22 1.86,2.92 1.86,5.36 v 10.48 z"
             fill="#939598"
             id="path496"
             style="fill:#ffffff" /><path
             d="m 2342.9506,2431.2438 c -2.21,0 -4.62,-0.31 -6.38,-1.8 -2.1,-1.7 -2.71,-4.37 -2.71,-7.26 0,-2.71 0.88,-5.67 3.49,-7.33 2.14,-1.39 4.78,-1.69 7.53,-1.69 2,0 3.9,0.13 6,0.33 v 3.67 c -1.73,-0.17 -3.8,-0.3 -5.46,-0.3 -4.55,0 -6.69,1.42 -6.69,5.36 0,3.69 1.6,5.29 5.33,5.29 a 40.69,40.69 0 0 0 7.19,-0.88 v 3.52 a 42.64,42.64 0 0 1 -8.34,1.09"
             fill="#939598"
             id="path498"
             style="fill:#ffffff" /><path
             d="m 2365.4206,2416.7538 c -4.55,0 -6.55,1.43 -6.55,5.33 0,3.9 2,5.56 6.55,5.56 4.55,0 6.48,-1.39 6.48,-5.29 0,-3.9 -1.93,-5.6 -6.48,-5.6 m 8.21,12.69 c -2.1,1.42 -4.85,1.8 -8.21,1.8 -3.36,0 -6.17,-0.41 -8.24,-1.8 -2.38,-1.56 -3.23,-4.14 -3.23,-7.22 0,-3.08 0.85,-5.71 3.23,-7.27 2.07,-1.39 4.81,-1.79 8.24,-1.79 3.43,0 6.11,0.4 8.21,1.79 2.37,1.56 3.19,4.18 3.19,7.23 0,3.05 -0.85,5.7 -3.19,7.26"
             fill="#939598"
             id="path500"
             style="fill:#ffffff" /><path
             d="m 2404.4306,2431.2438 c -2.88,0 -6,-0.48 -8.34,-2.41 -2.78,-2.31 -3.63,-5.87 -3.63,-9.7 0,-3.43 1.09,-7.5 4.71,-9.87 2.82,-1.83 6.31,-2.21 9.84,-2.21 2.58,0 5.23,0.17 8.11,0.41 v 4.17 c -2.47,-0.2 -5.53,-0.37 -7.9,-0.37 -6.62,0 -9.43,2.51 -9.43,7.87 0,5.36 2.61,7.9 7.49,7.9 a 52.84,52.84 0 0 0 10.35,-1.39 v 4.14 a 58,58 0 0 1 -11.2,1.46"
             fill="#939598"
             id="path502"
             style="fill:#ffffff" /><path
             d="m 2429.6906,2416.2138 c -4,0 -5.5,1.43 -5.81,4 h 11.54 c -0.14,-2.78 -1.77,-4 -5.73,-4 m -0.72,15 c -2.81,0 -5.36,-0.34 -7.26,-1.9 -1.9,-1.56 -2.75,-4.24 -2.75,-7.16 0,-2.61 0.85,-5.53 3.23,-7.23 2.1,-1.49 4.78,-1.79 7.5,-1.79 2.44,0 5.32,0.27 7.42,1.73 2.75,1.93 3,4.92 3,8.44 h -16.26 c 0.1,2.62 1.49,4.31 6.31,4.31 a 61.81,61.81 0 0 0 9.13,-0.88 v 3.36 a 65.31,65.31 0 0 1 -10.32,1.12"
             fill="#939598"
             id="path504"
             style="fill:#ffffff" /><path
             d="m 2461.4106,2430.7638 v -9.45 c 0,-3.12 -1.59,-4.24 -4.44,-4.24 a 32.63,32.63 0 0 0 -7,1.08 v 12.62 h -4.78 v -17.14 h 3.9 l 0.17,1.09 a 39.6,39.6 0 0 1 9.16,-1.56 8.45,8.45 0 0 1 5.87,1.76 c 1.35,1.22 1.86,2.92 1.86,5.36 v 10.48 z"
             fill="#939598"
             id="path506"
             style="fill:#ffffff" /><path
             d="m 2479.7806,2431.2438 c -2.31,0 -4.41,-0.65 -5.56,-2.45 a 8.85,8.85 0 0 1 -1.26,-5.18 v -6.42 h -3.46 v -3.56 h 3.46 l 0.51,-5.19 h 4.22 v 5.19 h 6.75 v 3.56 h -6.75 v 5.5 a 8.26,8.26 0 0 0 0.47,3.26 c 0.51,1.15 1.63,1.59 3.13,1.59 a 21.3,21.3 0 0 0 3.42,-0.34 v 3.43 a 27.57,27.57 0 0 1 -4.95,0.61"
             fill="#939598"
             id="path508"
             style="fill:#ffffff" /><path
             d="m 2489.1306,2430.7638 v -17.13 h 3.9 l 0.17,1.09 a 29.76,29.76 0 0 1 8.48,-1.56 5.23,5.23 0 0 1 0.61,0 v 4.15 c -0.54,0 -1.19,0 -1.66,0 a 26.94,26.94 0 0 0 -6.72,0.88 v 12.65 z"
             fill="#939598"
             id="path510"
             style="fill:#ffffff" /><path
             d="m 2519.6906,2423.5738 c -2,-0.17 -4,-0.27 -6.18,-0.27 -3.49,0 -4.71,0.71 -4.71,2.31 0,1.6 1,2.3 3.69,2.3 a 34.61,34.61 0 0 0 7.2,-1 z m 1,7.19 -0.14,-1 a 41.11,41.11 0 0 1 -9.3,1.5 8.88,8.88 0 0 1 -5.19,-1.26 4.87,4.87 0 0 1 -1.9,-4.14 4.81,4.81 0 0 1 2.89,-4.64 c 1.8,-0.85 4.2,-0.92 6.41,-0.92 1.8,0 4.21,0.1 6.21,0.24 v -0.31 c 0,-2.68 -1.77,-3.56 -6.58,-3.56 -1.87,0 -4.14,0.1 -6.31,0.3 v -3.46 c 2.41,-0.2 5.12,-0.33 7.36,-0.33 3,0 6.07,0.23 8,1.59 1.93,1.36 2.34,3.33 2.34,5.87 v 10.14 z"
             fill="#939598"
             id="path512"
             style="fill:#ffffff" /><path
             d="m 2530.6106,2406.4138 h 4.79 v 24.35 h -4.79 z"
             fill="#939598"
             id="path514"
             style="fill:#ffffff" /></g><g
           id="g648"
           transform="matrix(0.1912259,0,0,0.1912259,2503.631,1377.3177)"><polygon
             points="433.5,319.03 351.91,319.03 402.91,5.61 484.51,5.61 "
             fill="#005ca8"
             id="polygon615"
             transform="translate(2330.2818,2144.2774)"
             style="fill:#ffffff" /><path
             d="m 2613.5418,2149.9074 -77.79,215.55 -9.21,-46.43 v 0 l -27.45,-140.91 c 0,0 -3.31,-28.21 -38.71,-28.21 h -128.59 l -1.51,5.28 c 0,0 39.34,8.18 85.35,35.84 l 70.89,272.28 h 85 l 129.84,-313.4 z"
             fill="#005ca8"
             id="path617"
             style="fill:#ffffff" /><path
             d="m 3255.3618,2463.3074 h 74.92 l -65.33,-313.4 h -65.6 c -30.29,0 -37.67,23.36 -37.67,23.36 l -121.69,290.04 h 85 l 17,-46.55 h 103.8 z m -89.79,-110.87 42.88,-117.29 24.12,117.29 z"
             fill="#005ca8"
             id="path619"
             style="fill:#ffffff" /><path
             d="m 3046.3718,2225.2574 11.64,-67.35 c 0,0 -35.93,-13.66 -73.39,-13.66 -40.49,0 -136.65,17.71 -136.65,103.76 0,81 112.86,82 112.86,124.5 0,42.5 -101.22,34.92 -134.63,8.1 l -12.14,70.36 c 0,0 36.43,17.71 92.11,17.71 55.68,0 139.7,-28.77 139.7,-107.28 0,-81.48 -113.88,-89.07 -113.88,-124.5 0,-35.43 79.46,-30.88 114.38,-11.64 z"
             fill="#005ca8"
             id="path621"
             style="fill:#ffffff" /><path
             d="m 2526.5518,2319.0474 -27.46,-140.93 c 0,0 -3.31,-28.21 -38.71,-28.21 h -128.59 l -1.51,5.28 c 0,0 61.81,12.82 121.11,60.81 56.67,45.91 75.16,103.05 75.16,103.05 z"
             fill="#f6a723"
             id="path623"
             style="fill:#ffffff" /></g><g
           id="g684"
           transform="matrix(0.12330696,0,0,0.12330696,2909.1395,1569.3429)"><path
             d="m 3437.5124,2211.4805 v -12 h -3.13 l -3.62,8.25 -3.58,-8.27 h -3.14 v 12 h 2.23 v -9 l 3.38,7.81 h 2.31 l 3.38,-7.83 v 9.07 h 2.2 z m -19.86,0 v -10 h 4 v -2 h -10.23 v 2 h 4 v 10 z"
             fill="#f79410"
             id="path654"
             style="fill:#ffffff" /><path
             d="m 3081.6924,2263.0405 h -270.92 v -486.82 h 270.92 z"
             fill="#ff5f00"
             id="path656"
             style="fill:#f9f9f9" /><path
             d="m 2827.9524,2019.6105 a 309.1,309.1 0 0 1 118.23,-243.39 308.32,308.32 0 0 0 -191.34,-66.21 c -171,0 -309.6,138.63 -309.6,309.64 0,171.01 138.63,309.57 309.62,309.57 a 308.23,308.23 0 0 0 191.32,-66.17 309.14,309.14 0 0 1 -118.23,-243.44"
             fill="#eb001b"
             id="path658"
             style="fill:#f2f2f2" /><path
             d="m 3447.1824,2019.6105 c 0,171.01 -138.61,309.61 -309.6,309.61 a 308.4,308.4 0 0 1 -191.4,-66.17 309.67,309.67 0 0 0 0,-486.83 308.38,308.38 0 0 1 191.4,-66.25 c 171,0 309.59,138.63 309.59,309.64"
             fill="#f79e1b"
             id="path660"
             style="fill:#ffffff" /></g></g><g
         id="g2195"><g
           id="g456"
           transform="matrix(0.21531639,0,0,0.21531639,2352.5096,1507.0334)"><path
             d="m 1837.7269,2408.8819 v -144.94 a 1.23,1.23 0 0 1 1.3,-1.3 h 27.89 a 1.4,1.4 0 0 1 1.31,1.3 v 52.4 h 0.52 c 7.3,-9.38 18.5,-13.56 30.76,-13.56 21.89,0 28.93,14.34 28.93,33.37 v 73 a 1.39,1.39 0 0 1 -1.3,1.3 h -27.89 a 1.23,1.23 0 0 1 -1.31,-1.3 v -70.39 c 0,-8.34 -8.6,-10.69 -14.07,-10.69 -5.47,0 -15.64,3.65 -15.64,13.82 v 67 a 1.4,1.4 0 0 1 -1.31,1.3 h -27.89 a 1.39,1.39 0 0 1 -1.3,-1.3 z m 222.35,-28.64 v -49.82 h -12.77 a 1.24,1.24 0 0 1 -1.31,-1.31 v -18 c 0,-0.53 0.53,-1.05 0.79,-1.31 0.52,-0.26 16.94,-4.95 16.94,-4.95 0,0 8.86,-28.15 9.12,-28.67 a 1.22,1.22 0 0 1 1.31,-0.79 h 15.12 a 1.24,1.24 0 0 1 1.3,1.31 v 28.15 h 22.42 a 1.39,1.39 0 0 1 1.3,1.3 v 22.94 a 1.4,1.4 0 0 1 -1.3,1.31 h -22.42 v 46.94 c 0,4.95 2.87,7.82 9.38,7.82 h 13 a 1.39,1.39 0 0 1 1.3,1.3 v 20.07 a 1.62,1.62 0 0 1 -0.78,1.31 c -7.82,2.86 -12.25,4.69 -21.38,4.69 -22.63,-0.29 -32.02,-13.56 -32.02,-32.29 z m 436.37,0 v -49.82 h -12.78 a 1.24,1.24 0 0 1 -1.31,-1.31 v -18 a 2.17,2.17 0 0 1 0.79,-1.31 c 0.52,-0.26 16.94,-4.95 16.94,-4.95 0,0 8.86,-28.15 9.12,-28.67 a 1.2,1.2 0 0 1 1.31,-0.79 h 15.15 a 1.24,1.24 0 0 1 1.3,1.31 v 28.15 h 22.4 a 1.39,1.39 0 0 1 1.3,1.3 v 22.94 a 1.4,1.4 0 0 1 -1.3,1.31 h -22.42 v 46.94 c 0,4.95 2.87,7.82 9.38,7.82 h 13 a 1.39,1.39 0 0 1 1.3,1.3 v 20.07 a 1.62,1.62 0 0 1 -0.78,1.31 c -7.82,2.86 -12.25,4.69 -21.38,4.69 -22.9,-0.29 -32.02,-13.56 -32.02,-32.29 z m -363.64,28.64 v -103 a 1.23,1.23 0 0 1 1.3,-1.3 h 25.29 a 1.73,1.73 0 0 1 1.3,1 c 0,0.52 2.87,10.43 2.87,10.43 h 0.52 c 7.3,-9.39 18.25,-13.56 30.5,-13.56 14.86,0 22.16,6.78 26.33,17.21 h 0.75 c 7.56,-12.77 20.85,-17.21 33.1,-17.21 21.9,0 28.94,14.34 28.94,33.37 v 73 a 1.23,1.23 0 0 1 -1.3,1.3 h -27.9 a 1.39,1.39 0 0 1 -1.3,-1.3 v -69.8 c 0,-8.34 -7.82,-11.47 -13.29,-11.47 -6.26,0 -15.9,3.91 -16.17,13.29 v 67.78 a 1.39,1.39 0 0 1 -1.3,1.3 h -28.12 a 1.23,1.23 0 0 1 -1.3,-1.3 v -69.86 c 0,-8.34 -8.35,-11.47 -14.34,-11.47 -5.48,0 -15.12,4.17 -15.12,14.6 v 66.73 a 1.23,1.23 0 0 1 -1.3,1.3 h -27.9 a 1.17,1.17 0 0 1 -1.56,-1 z m 169.18,-80.81 v -19 a 1.19,1.19 0 0 1 1,-1.3 c 14.6,-2.87 27.89,-5 40.66,-5 27.11,0 42.76,6.52 42.76,35.72 v 70.65 a 1.24,1.24 0 0 1 -1.31,1.3 h -26.55 c -0.78,0 -1,-0.52 -1.3,-1 -0.3,-0.48 -2.87,-10.43 -2.87,-10.43 h 1.29 c -7.56,10.43 -17.73,13.56 -30,13.56 -19.81,0 -30.5,-15.38 -30.5,-33.63 0,-27.37 20.07,-32.84 34.93,-32.84 h 25.81 v -7 c 0,-8.6 -6.52,-10.43 -31,-10.43 -10.43,0 -21.38,0.78 -21.9,0.78 a 1.83,1.83 0 0 1 -1,-1.3 z m 54.22,36.49 h -16.69 c -8.86,0 -14.59,3.39 -14.59,12.78 0,10.16 7.3,12.51 14.33,12.51 6.52,0 16.95,-3.91 16.95,-16.94 z m 48.22,44.32 v -103 a 1.23,1.23 0 0 1 1.31,-1.3 h 25 a 1.19,1.19 0 0 1 1.3,1 c 0,0.52 2.87,15.9 2.87,15.9 h 0.52 c 6.78,-13.81 20.6,-18.77 32.59,-19.29 a 1.23,1.23 0 0 1 1.3,1.31 v 28.74 a 1.39,1.39 0 0 1 -1.3,1.3 h -7 c -19.29,0 -25.81,7.56 -25.81,17.21 v 57.87 a 1.39,1.39 0 0 1 -1.3,1.3 h -27.91 a 1.15,1.15 0 0 1 -1.57,-1.04 z m -463,-51.35 c 0,-33.63 13,-54.75 50.31,-54.75 37.31,0 50.58,21.38 50.58,54.75 0,33.62 -13,54.74 -50.58,54.74 -37.23,-0.03 -50.27,-21.12 -50.27,-54.74 z m 32.85,0 c 0,18.24 2.61,29.19 17.2,29.19 14.86,0 17.47,-11.21 17.47,-29.19 0,-18.25 -2.61,-29.2 -17.47,-29.2 -14.29,0 -17.16,10.91 -17.16,29.2 z"
             fill="#053d4e"
             id="path428"
             style="fill:#ffffff" /><path
             d="m 1780.6669,2347.1019 c 1.56,-28.67 -8.34,-75.6 -32.32,-114.18 a 0.83,0.83 0 1 0 -1.57,0.53 c 1.57,5.73 2.09,16.42 -7.3,15.9 -16.42,-1.05 0.52,-36.5 -35.71,-60.74 a 0.87,0.87 0 0 0 -1.3,1 c 2.6,4.69 3.91,19.55 -1.83,24.51 -4.69,3.91 -13,2.86 -21.11,-10.43 -13.56,-22.16 -8.34,-45.62 0.78,-60.48 0.78,-1 -0.26,-1.56 -1,-1.3 -49.79,16.42 -59.7,75.07 -70.39,96.45 -1.82,3.65 -3.38,5.47 -6.25,5.21 -9.13,-0.52 -2.61,-20.07 0.52,-26.59 0.52,-1 -0.52,-1.56 -1.3,-0.78 -25.62,26.63 -48.82,72.25 -53.22,114.48 0.26,-1.05 -0.52,3.39 -0.78,6.77 0,1.31 -0.26,2.61 -0.26,3.91 v 4.7 a 116.52,116.52 0 1 0 233,2.08 z m -117,54 a 54,54 0 1 1 54.48,-53.44 53.9,53.9 0 0 1 -54.55,53.4 z"
             fill="#f04e23"
             id="path430"
             style="fill:#ffffff" /></g><g
           id="g786"
           transform="matrix(0.20139911,0,0,0.20139911,1910.077,1587.2669)"><path
             d="m 2632.191,1774.3945 h 970.58 v 313.237 l -48.07,44.8336 48.07,39.9557 v 182.1676 h -970.58 v -295.2439 l 30.07,-20.6473 -30.07,-19.7208 z"
             fill="#016fd0"
             id="path688"
             style="fill:#808080;stroke-width:0.773163" /><path
             d="m 2820.561,2240.1814 v -152.37 h 161.33 l 17.3,22.57 17.9,-22.57 h 585.68 v 141.86 c 0,0 -15.28,10.32 -33,10.51 h -324.29 l -19.56,-24 v 24 h -63.93 v -41 c 0,0 -8.75,5.74 -27.63,5.74 h -21.8 v 35.32 h -96.81 l -17.32,-23.06 -17.51,23.06 h -160.36 z"
             fill="#ffffff"
             id="path690" /><path
             d="m 2632.191,1988.9914 36.39,-84.86 h 63 l 20.61,47.5 v -47.5 h 78.2 l 12.26,34.34 11.87,-34.34 h 351.16 v 17.22 c 0,0 18.51,-17.22 48.75,-17.22 l 113.94,0.38 20.33,46.9 v -47.28 h 65.49 l 18,27 v -27 h 66.07 v 152.39 h -66.07 l -17.22,-27.05 v 27.05 h -96.14 l -9.63,-24 h -25.88 l -9.54,24 h -65.19 c -26.08,0 -42.81,-16.93 -42.81,-16.93 v 16.93 h -98.47 l -19.56,-24 v 24 h -365.56 l -9.63,-24 h -25.78 l -9.64,24 h -44.95 z"
             fill="#ffffff"
             id="path692" /><path
             d="m 2681.421,1922.9214 -49,114 h 31.88 l 9,-22.86 h 52.69 l 9,22.86 h 32.69 l -49,-114 z m 18.2,26.57 16,39.89 h -32.06 z"
             fill="#016fd0"
             id="path694"
             style="fill:#808080" /><path
             d="m 2771.041,2036.9614 v -114 l 45.44,0.2 26.37,73.56 25.78,-73.76 h 45.05 v 114.1 h -28.49 v -84.07 l -30.26,84.07 h -25 l -30.36,-84.17 v 84.07 z"
             fill="#016fd0"
             id="path696"
             style="fill:#808080" /><path
             d="m 2933.241,2036.9614 v -114 h 93 v 25.5 h -64.2 v 19.56 h 62.76 v 24 h -62.76 v 20.24 h 64.22 v 24.81 z"
             fill="#016fd0"
             id="path698"
             style="fill:#808080" /><path
             d="m 3042.801,1922.9214 v 114.14 h 28.51 v -40.58 h 12 l 34.25,40.58 h 34.83 l -37.56,-42 a 34.74,34.74 0 0 0 31.33,-35 c 0,-24 -18.87,-37 -39.89,-37 l -63.44,-0.1 z m 28.51,25.5 h 32.59 c 7.79,0 13.53,6.13 13.53,12 0,7.58 -7.4,12 -13.14,12 h -33 v -24 z"
             fill="#016fd0"
             id="path700"
             style="fill:#808080" /><path
             d="m 3186.901,2036.9614 h -29.09 v -114 h 29.09 z"
             fill="#016fd0"
             id="path702"
             style="fill:#808080" /><path
             d="m 3255.991,2036.9614 h -6.33 c -30.45,0 -48.84,-23.93 -48.84,-56.53 0,-33.37 18.29,-57.51 56.63,-57.51 h 31.52 v 27 h -32.69 c -15.57,0 -26.66,12.17 -26.66,30.75 0,22.09 12.65,31.33 30.74,31.33 h 7.5 z"
             fill="#016fd0"
             id="path704"
             style="fill:#808080" /><path
             d="m 3318.061,1922.9214 -49,114.14 h 31.92 l 9,-22.87 h 52.64 l 9,22.87 h 32.69 l -49,-114.14 z m 18.13,26.57 16,39.89 h -32.08 z"
             fill="#016fd0"
             id="path706"
             style="fill:#808080" /><path
             d="m 3407.581,2036.9614 v -114 h 36.29 l 46.32,71.68 v -71.72 h 28.51 v 114.14 h -35.13 l -47.48,-73.56 v 73.56 h -28.51 z"
             fill="#016fd0"
             id="path708"
             style="fill:#808080" /><path
             d="m 2840.121,2220.6214 v -114 h 93.12 v 25.51 h -64.22 v 19.56 h 62.76 v 24 h -62.76 v 20.24 h 64.22 v 24.71 z"
             fill="#016fd0"
             id="path710"
             style="fill:#808080" /><path
             d="m 3296.191,2220.6214 v -114 h 93.1 v 25.51 h -64.22 v 19.56 h 62.47 v 24 h -62.47 v 20.24 h 64.22 v 24.71 z"
             fill="#016fd0"
             id="path712"
             style="fill:#808080" /><path
             d="m 2936.841,2220.6214 45.35,-56.33 -46.41,-57.7 h 35.9 l 27.64,35.71 27.73,-35.71 h 34.54 l -45.83,57 45.44,57 h -35.91 l -26.86,-35.12 -26.17,35.12 z"
             fill="#016fd0"
             id="path714"
             style="fill:#808080" /><path
             d="m 3064.601,2106.5914 v 114.13 h 29.28 v -36 h 30.07 c 25.39,0 44.66,-13.53 44.66,-39.7 0,-21.7 -15.08,-38.34 -41,-38.34 h -63 z m 29.28,25.78 h 31.63 c 8.17,0 14.1,5.06 14.1,13.14 0,7.59 -5.83,13.13 -14.2,13.13 h -31.53 z"
             fill="#016fd0"
             id="path716"
             style="fill:#808080" /><path
             d="m 3180.871,2106.5914 v 114 h 28.51 v -40.54 h 12 l 34.25,40.57 h 34.83 l -37.46,-42 a 34.76,34.76 0 0 0 31.33,-35 c 0,-24 -18.88,-37 -39.89,-37 z m 28.61,25.54 h 32.59 c 7.79,0 13.53,6.13 13.53,12 0,7.59 -7.4,12 -13.14,12 h -33 z"
             fill="#016fd0"
             id="path718"
             style="fill:#808080" /><path
             d="m 3402.521,2220.6214 v -24.81 h 57.12 c 8.46,0 12.06,-4.57 12.06,-9.53 0,-4.77 -3.6,-9.64 -12.06,-9.64 h -25.79 c -22.38,0 -34.93,-13.62 -34.93,-34.15 0,-18.29 11.48,-35.9 44.76,-35.9 h 55.56 l -12,25.68 h -48.05 c -9.14,0 -12,4.87 -12,9.44 0,4.77 3.5,9.93 10.5,9.93 h 27.1 c 25,0 35.81,14.2 35.81,32.79 0,19.94 -12.06,36.29 -37.17,36.29 h -60.91 z"
             fill="#016fd0"
             id="path720"
             style="fill:#808080" /><path
             d="m 3507.411,2220.6214 v -24.81 h 60.33 c 9,0 12.74,-4.57 12.74,-9.53 0,-4.77 -3.89,-9.64 -12.74,-9.64 h -27.25 c -23.64,0 -36.87,-13.62 -36.87,-34.15 0,-18.29 12.06,-35.9 47.29,-35.9 h 58.67 l -12.65,25.68 h -50.74 c -9.73,0 -12.65,4.87 -12.65,9.44 0,4.77 3.7,9.93 11.09,9.93 h 28.46 c 26.37,0 37.85,14.2 37.85,32.79 0,19.94 -12.75,36.29 -39.31,36.29 h -64.22 z"
             fill="#016fd0"
             id="path722"
             style="fill:#808080" /></g><g
           id="g1463"
           transform="matrix(0.35696942,0,0,0.35696942,2009.617,1189.5222)"><path
             d="m 3191.3857,2230.526 h -39.7503 c -2.71,0 -5.0353,1.9802 -5.4539,4.6619 l -16.0733,101.9218 c -0.3168,2.0084 1.239,3.8245 3.2758,3.8245 h 20.39 c 1.8953,0 3.519,-1.3805 3.8132,-3.2588 l 4.5657,-28.8934 c 0.4187,-2.6817 2.7326,-4.6618 5.4539,-4.6618 h 12.5769 c 26.1834,0 41.2892,-12.6674 45.2382,-37.7816 1.7765,-10.9814 0.079,-19.6149 -5.0692,-25.6572 -5.6463,-6.6477 -15.6716,-10.1554 -28.967,-10.1554 z m 4.5884,37.2214 c -2.1726,14.2685 -13.0691,14.2685 -23.6092,14.2685 h -6.0028 l 4.2093,-26.636 c 0.2546,-1.6125 1.6407,-2.8006 3.2701,-2.8006 h 2.7439 c 7.1796,0 13.9574,0 17.4481,4.0905 2.0933,2.4441 2.7326,6.065 1.9406,11.0776 z"
             id="path2"
             inkscape:connector-curvature="0"
             style="fill:#ffffff;stroke-width:5.65761" /><path
             d="m 2907.8944,2230.526 h -39.7447 c -2.7214,0 -5.0353,1.9802 -5.4596,4.6619 l -16.0733,101.9218 c -0.3168,2.0084 1.239,3.8245 3.2758,3.8245 h 18.9756 c 2.7156,0 5.0296,-1.9745 5.4539,-4.6562 l 4.3394,-27.496 c 0.4243,-2.6817 2.7383,-4.6618 5.4539,-4.6618 h 12.5769 c 26.1777,0 41.2892,-12.6674 45.2439,-37.7816 1.7765,-10.9814 0.068,-19.6149 -5.0692,-25.6572 -5.6576,-6.6477 -15.6773,-10.1554 -28.9726,-10.1554 z m 4.5883,37.2214 c -2.1726,14.2685 -13.0691,14.2685 -23.6092,14.2685 h -5.9971 l 4.2036,-26.636 c 0.2546,-1.6125 1.6464,-2.8006 3.2758,-2.8006 h 2.7496 c 7.1738,0 13.9516,0 17.4424,4.0905 2.0876,2.4441 2.7213,6.065 1.9349,11.0776 z"
             id="path4-0"
             inkscape:connector-curvature="0"
             style="fill:#f2f2f2;stroke-width:5.65761" /><path
             d="m 3026.6928,2267.2948 h -19.0265 c -1.6351,0 -3.0212,1.1824 -3.2758,2.7948 l -0.8317,5.3182 -1.3352,-1.9293 c -4.1187,-5.9857 -13.3067,-7.9772 -22.4776,-7.9772 -21.0237,0 -38.9866,15.9318 -42.483,38.2794 -1.8218,11.1511 0.7638,21.8044 7.0833,29.2442 5.8047,6.8344 14.0988,9.6745 23.9713,9.6745 16.9445,0 26.3475,-10.8853 26.3475,-10.8853 l -0.8487,5.2899 c -0.3168,2.0085 1.2334,3.8302 3.2701,3.8302 h 17.1426 c 2.7156,0 5.0296,-1.9745 5.4596,-4.6506 l 10.2798,-65.1586 c 0.3169,-2.0198 -1.239,-3.8302 -3.2757,-3.8302 z m -26.5229,37.0403 c -1.8387,10.8796 -10.4722,18.1723 -21.4819,18.1723 -5.5218,0 -9.9404,-1.7765 -12.7805,-5.1315 -2.8175,-3.338 -3.8755,-8.0847 -2.9816,-13.3689 1.7143,-10.7777 10.4892,-18.3137 21.3348,-18.3137 5.4031,0 9.7877,1.7878 12.6901,5.188 2.908,3.4172 4.0565,8.1979 3.2191,13.4538 z"
             id="path6-7"
             inkscape:connector-curvature="0"
             style="fill:#f2f2f2;stroke-width:5.65761" /><path
             d="m 3310.1842,2267.2948 h -19.0265 c -1.6294,0 -3.0155,1.1824 -3.2701,2.7948 l -0.8374,5.3182 -1.3295,-1.9293 c -4.1244,-5.9857 -13.3067,-7.9772 -22.4777,-7.9772 -21.035,0 -38.9979,15.9318 -42.4886,38.2794 -1.8161,11.1511 0.7638,21.8044 7.0833,29.2442 5.8047,6.8344 14.0988,9.6745 23.9713,9.6745 16.9445,0 26.3475,-10.8853 26.3475,-10.8853 l -0.8487,5.2899 c -0.3225,2.0085 1.239,3.8302 3.2701,3.8302 h 17.1426 c 2.71,0 5.0296,-1.9745 5.4539,-4.6506 l 10.2855,-65.1586 c 0.3169,-2.0198 -1.239,-3.8302 -3.2757,-3.8302 z m -26.5229,37.0403 c -1.8387,10.8796 -10.4722,18.1723 -21.4819,18.1723 -5.5218,0 -9.9404,-1.7765 -12.7862,-5.1315 -2.8062,-3.338 -3.8755,-8.0847 -2.9759,-13.3689 1.7199,-10.7777 10.4835,-18.3137 21.3292,-18.3137 5.4086,0 9.7933,1.7878 12.69,5.188 2.9137,3.4172 4.0622,8.1979 3.2248,13.4538 z"
             id="path8"
             inkscape:connector-curvature="0"
             style="fill:#ffffff;stroke-width:5.65761" /><path
             d="m 3128.0658,2267.2948 h -19.134 c -1.8274,0 -3.5417,0.9052 -4.5714,2.4158 l -26.3871,38.8677 -11.1907,-37.3458 c -0.6959,-2.3423 -2.8514,-3.9377 -5.2899,-3.9377 h -18.8059 c -2.2687,0 -3.8641,2.2347 -3.1399,4.379 l 21.0689,61.832 -19.8129,27.9542 c -1.5502,2.1952 0.023,5.2276 2.71,5.2276 h 19.117 c 1.8048,0 3.5021,-0.8882 4.5374,-2.3762 l 63.6255,-91.8173 c 1.5162,-2.2008 -0.057,-5.1993 -2.727,-5.1993 z"
             id="path10"
             inkscape:connector-curvature="0"
             style="fill:#f2f2f2;stroke-width:5.65761" /><path
             d="m 3332.6166,2233.3209 -16.3109,103.7831 c -0.3225,2.0085 1.2334,3.8245 3.2701,3.8245 h 16.4071 c 2.7156,0 5.0296,-1.9745 5.4539,-4.6505 l 16.0846,-101.9275 c 0.3168,-2.0084 -1.239,-3.8302 -3.2701,-3.8302 h -18.3646 c -1.6237,0.01 -3.0155,1.1938 -3.2701,2.8006 z"
             id="path12"
             inkscape:connector-curvature="0"
             style="fill:#ffffff;stroke-width:5.65761" /><path
             d="m 2768.6437,2235.8611 c 2.1385,-13.6461 -0.011,-22.9303 -7.3945,-31.3375 -8.1244,-9.2558 -22.8002,-13.2218 -41.5778,-13.2218 h -54.511 c -3.8359,0 -7.106,2.7949 -7.7057,6.5855 l -22.6983,143.9295 c -0.447,2.8458 1.7482,5.4087 4.6222,5.4087 h 33.6515 l -2.3253,14.7324 c -0.3904,2.4837 1.5332,4.7297 4.0509,4.7297 h 28.3672 c 3.355,0 6.2121,-2.4441 6.7382,-5.7594 l 0.2772,-1.4427 5.3408,-33.8834 0.3451,-1.8727 c 0.5262,-3.3153 3.3833,-5.7651 6.7382,-5.7651 h 4.2433 c 27.4789,0 48.9948,-11.1568 55.2804,-43.4504 2.6308,-13.4877 1.273,-24.752 -5.6745,-32.667 -2.1047,-2.3875 -4.7185,-4.3677 -7.7679,-5.9858 v 0"
             id="path18"
             inkscape:connector-curvature="0"
             style="fill:#ffffff;stroke-width:5.65761" /><path
             d="m 2768.6437,2235.8611 c 2.1385,-13.6461 -0.011,-22.9303 -7.3945,-31.3375 -8.1244,-9.2558 -22.8002,-13.2218 -41.5778,-13.2218 h -54.511 c -3.8359,0 -7.106,2.7949 -7.7057,6.5855 l -22.6983,143.9295 c -0.447,2.8458 1.7482,5.4087 4.6222,5.4087 h 33.6515 l 8.4525,-53.6059 -0.2603,1.686 c 0.5997,-3.7963 3.8359,-6.5855 7.6774,-6.5855 h 15.994 c 31.4111,0 56.0047,-12.7635 63.1955,-49.6681 0.2093,-1.0919 0.3904,-2.1442 0.5545,-3.1909"
             id="path20"
             inkscape:connector-curvature="0"
             style="fill:#f9f9f9;stroke-width:5.65761" /><path
             d="m 2690.5687,2236.0422 c 0.3564,-2.2801 1.8217,-4.1471 3.7906,-5.0919 0.8939,-0.43 1.8953,-0.6676 2.9476,-0.6676 h 42.7319 c 5.0636,0 9.782,0.3338 14.0988,1.0297 1.2333,0.198 2.4327,0.4243 3.5982,0.6846 1.1655,0.2546 2.297,0.5431 3.3946,0.8656 0.5487,0.1584 1.0862,0.3281 1.618,0.5035 2.1216,0.7072 4.0961,1.5332 5.9066,2.495 2.1385,-13.6461 -0.011,-22.9303 -7.3945,-31.3375 -8.1357,-9.2558 -22.8115,-13.2218 -41.5891,-13.2218 h -54.511 c -3.8359,0 -7.106,2.7949 -7.7057,6.5855 l -22.6983,143.9295 c -0.447,2.8458 1.7482,5.4087 4.6222,5.4087 h 33.6515 l 8.4525,-53.6059 z"
             id="path22"
             inkscape:connector-curvature="0"
             style="fill:#f2f2f2;stroke-width:5.65761" /></g><g
           id="g2111"
           transform="matrix(0.18804055,0,0,0.18804055,2838.669,1565.1444)"><g
             id="g2106"><path
               d="m 2496.8303,2111.262 h -103.59 c -45.77,2.16 -83.19,20.6 -94,58.62 -5.63,19.82 -8.73,41.6 -13.14,62.15 -22.38,104.51 -42.24,211.89 -63.66,314.31 h 806.53 c 62.35,0 105.16,-13.18 116.72,-62.66 5.38,-23 10.53,-49 15.67,-74.28 20,-98.48 40.11,-196.94 60.64,-298.14 z"
               fill="#822124"
               id="path1467"
               style="fill:#808080;fill-opacity:1" /><path
               d="m 2488.4803,2266.062 c 4.34,-3 9.93,-16.59 3.55,-22.26 -2,-1.79 -5.41,-2.31 -10.12,-1.51 -4.38,0.73 -6.89,2.22 -8.6,4.55 -2.75,3.74 -5.27,15 -1,19.22 4.27,4.22 13.41,1.9 16.17,0 z m -61.51,-22.13 c -3.12,20.24 -6.63,40.07 -10.15,59.9 -22.62,0.24 -45.7,1.11 -67.51,-0.51 4.12,-19.4 7.07,-40 11.16,-59.39 h -24.41 c -8.72,49.49 -16.65,99.76 -26.39,148.22 h 24.87 c 3.9,-24.86 7.55,-50 12.69,-73.6 21.2,-0.52 46.62,-1.43 67,0.51 -4.2,24.56 -9.28,48.24 -13.2,73.09 h 24.87 c 8,-50.21 16.42,-100 26.4,-148.22 z m 350.41,41.84 c -19.28,-7.79 -34.43,5.37 -41.46,17.7 1.59,-5.49 2.25,-11.91 3.54,-17.7 h -19.27 c -4.7,36.43 -11.62,70.64 -18.2,105.18 h 21.75 c 3,-20.5 4.36,-48.14 11.12,-67.76 5.4,-15.67 19.54,-29 40,-21.74 0.23,-5.79 1.89,-10.2 2.47,-15.68 z m 12.16,81 c -2,-5.18 -2.52,-13.74 -2,-20.24 1.12,-14.62 6.45,-32.41 14.67,-40.47 11.34,-11.12 33.74,-9.28 51.6,-3 0.55,-6 1.76,-11.39 2.53,-17.2 -29.29,-4.78 -57.09,-1.8 -71.83,13.66 -14.54,15.07 -23.96,49.87 -17.28,71.82 7.83,25.62 42.92,27 71.33,17.2 1.26,-5.15 1.93,-10.89 3,-16.19 -15.49,7.99 -45.17,12.21 -52.07,-5.61 z m 244.33,-80.46 c -19.22,-9.61 -35.22,6.51 -41.46,16.18 1.77,-5 1.88,-11.6 3.53,-16.69 h -19.26 q -7.77,54.15 -18.71,105.15 h 22.25 c 0.14,-13.94 2.88,-24.25 5.06,-37.92 4.64,-29.19 11.47,-61.21 45.51,-51.58 1.13,-4.94 1.6,-10.54 3,-15.17 z m -567.71,0.68 c -0.58,0.09 -0.54,0.79 -0.5,1.5 -4.73,35.43 -11.15,69.18 -18,102.49 h 21.64 c 5.23,-36.07 11.21,-71.38 18.71,-105.18 l -21.75,1.19 z m 191.34,-2.68 c -15.72,1.21 -29,5.73 -38.45,15.68 -11.58,12.2 -21,39.17 -18.21,63.74 3.92,35 47.56,33.79 82.46,25.3 0.6,-6.16 2.09,-11.41 3,-17.2 -14.38,5.38 -39.34,12.88 -54.14,3.54 -11.19,-7.09 -11.19,-24.97 -7.59,-40.5 23.45,-0.75 47.84,-0.61 71.33,0 1.49,-11 5.75,-23 2,-33.9 -4.93,-14.36 -22.52,-18.08 -40.45,-16.69 z m 20.74,38.54 h -51.1 a 30.16,30.16 0 0 1 28.83,-25.32 c 15.67,-0.6 26.89,5.75 22.26,25.29 z m -103.34,-35.89 c -18.35,-6.89 -40.72,1.34 -50.42,9.17 0,0.34 -0.23,0.39 -0.52,0.42 l 0.52,-0.42 a 0.28,0.28 0 0 0 0,-0.09 c 0.16,-3.36 1.35,-5.71 1.51,-9.08 h -18.67 c -7.77,51.74 -17,102 -26.72,151.81 h 21.68 c 3.14,-19.39 5.21,-39.84 9.58,-58 5,19.1 37.29,15.45 50.94,8.07 28.15,-15.23 49.87,-87.69 12.1,-101.88 z m -17.11,84.84 c -11.64,12.32 -40.25,12.14 -42.49,-8.61 -1,-9 2.38,-18.48 4.05,-27.82 1.67,-9.34 2.89,-18.52 4.55,-26.81 11.46,-14 45.15,-15.69 48.56,7.59 2.97,20.19 -5.03,45.44 -14.67,55.65 z m 556.96,-131.46 c -1.86,16.33 -4.35,32 -7.58,47 -53.31,-16.88 -86,22.35 -85.41,70.76 0.12,9.36 1.73,18.64 7.58,25.27 10.09,11.4 39,14.14 53.57,4.54 2.82,-1.85 5.71,-5.23 7.58,-7.58 1.41,-1.76 3.64,-6.38 4.05,-5 -0.77,5.13 -1.92,9.88 -2,15.66 h 19.71 c 3.8,-54.49 15.54,-101 24.25,-150.6 z m -48.54,139.55 c -14.64,0.31 -21.92,-8.75 -22.26,-23.78 -0.58,-26.32 11,-55.55 34.41,-58.18 10.91,-1.22 18.81,1.32 26.81,4.05 -7.34,29.56 -4.69,77.17 -38.96,77.91 z m -187.68,-94.16 c -1.07,6 -2.72,11.45 -4,17.2 12.84,-3.22 52.81,-13.09 56.66,4 1.28,5.7 -0.93,11.74 -2.53,16.19 -36.14,-3.42 -65.6,2.58 -73.35,28.33 -5.19,17.25 0.58,34.22 11.63,39 21.29,9.12 47.19,-1.33 56.16,-15.68 a 65.36,65.36 0 0 0 -1.52,16.18 h 18.72 c 0.2,-17.92 2.81,-32.43 5.56,-48.56 2.35,-13.74 6.77,-27.34 6.07,-39.46 -1.61,-27.77 -47.61,-17.95 -73.35,-17.2 z m 35.44,85.61 c -11.21,11 -42.68,14.09 -39.46,-12.14 2.67,-21.79 26.4,-26.42 52.1,-23.28 -1.91,11.92 -4.1,27.06 -12.64,35.42 z"
               fill="#ffffff"
               id="path1469"
               style="fill:#ffffff" /></g></g></g></g></g></svg>
