<svg width="64" height="64" viewBox="0 0 64 64" fill="none" xmlns="http://www.w3.org/2000/svg">
<rect width="64" height="64" rx="32" fill="url(#paint0_linear_1_8309)"/>
<path fill-rule="evenodd" clip-rule="evenodd" d="M26.488 20H37.5698C41.1297 20 44.0578 22.9282 44.0578 26.488V37.512C44.0578 41.0718 41.1297 44 37.5698 44H26.488C22.9282 44 20 41.0718 20 37.512V26.488C20 22.9282 22.9282 20 26.488 20ZM38.488 24.1916C39.2345 24.1916 39.8662 24.8233 39.8662 25.5698C39.8662 26.3163 39.2345 26.948 38.488 26.948C37.6846 26.948 37.1098 26.3163 37.1098 25.5698C37.1098 24.8233 37.6837 24.1916 38.488 24.1916ZM32 25.455H32.0578C35.6177 25.455 38.6036 28.441 38.6036 32.0008C38.6036 35.6177 35.6177 38.5467 32.0578 38.5467H32C28.4401 38.5467 25.512 35.6185 25.512 32.0008C25.512 28.441 28.4401 25.455 32 25.455ZM32 27.6945H32.0578C34.4121 27.6945 36.3642 29.6466 36.3642 32.0008C36.3642 34.4121 34.4121 36.3642 32.0578 36.3642H32C29.6457 36.3642 27.6936 34.4121 27.6936 32.0008C27.6936 29.6466 29.6457 27.6945 32 27.6945ZM26.5458 22.0669H37.512C39.981 22.0669 41.9901 24.0768 41.9901 26.545V37.4542C41.9901 39.9232 39.9802 41.9323 37.512 41.9323H26.5458C24.0768 41.9323 22.0677 39.9224 22.0677 37.4542V26.5458C22.0677 24.0768 24.0776 22.0677 26.5458 22.0677V22.0669Z" fill="white"/>
<defs>
<linearGradient id="paint0_linear_1_8309" x1="9.5" y1="13" x2="56" y2="64" gradientUnits="userSpaceOnUse">
<stop stop-color="#3F8BF2"/>
<stop offset="0.379828" stop-color="#AE49CE"/>
<stop offset="0.629239" stop-color="#E5516A"/>
<stop offset="1" stop-color="#F3CB45"/>
</linearGradient>
</defs>
</svg>
