<?xml version="1.0" encoding="UTF-8" standalone="no"?>
<!-- Created with Inkscape (http://www.inkscape.org/) -->

<svg
   width="136.12897mm"
   height="135.92848mm"
   viewBox="0 0 136.12897 135.92848"
   version="1.1"
   id="svg5"
   xml:space="preserve"
   inkscape:version="1.2.2 (732a01da63, 2022-12-09)"
   sodipodi:docname="whatsapp.svg"
   xmlns:inkscape="http://www.inkscape.org/namespaces/inkscape"
   xmlns:sodipodi="http://sodipodi.sourceforge.net/DTD/sodipodi-0.dtd"
   xmlns="http://www.w3.org/2000/svg"
   xmlns:svg="http://www.w3.org/2000/svg"><sodipodi:namedview
     id="namedview7"
     pagecolor="#505050"
     bordercolor="#eeeeee"
     borderopacity="1"
     inkscape:showpageshadow="0"
     inkscape:pageopacity="0"
     inkscape:pagecheckerboard="0"
     inkscape:deskcolor="#505050"
     inkscape:document-units="mm"
     showgrid="false"
     inkscape:zoom="0.78127806"
     inkscape:cx="380.14635"
     inkscape:cy="307.18897"
     inkscape:window-width="2560"
     inkscape:window-height="1057"
     inkscape:window-x="1358"
     inkscape:window-y="-8"
     inkscape:window-maximized="1"
     inkscape:current-layer="layer1" /><defs
     id="defs2" /><g
     inkscape:label="Camada 1"
     inkscape:groupmode="layer"
     id="layer1"
     transform="translate(-65.739757,-10.967155)"><path
       style="fill:#ffffff;stroke:#ffffff;stroke-width:1.27995;stroke-linecap:round;stroke-linejoin:round;paint-order:fill markers stroke"
       d="m 70.599954,146.12861 c -3.412645,-0.74386 -5.143864,-4.49547 -3.685327,-7.98624 0.297422,-0.71183 1.215364,-2.72833 2.039871,-4.48111 0.824506,-1.75278 2.200646,-4.80835 3.058089,-6.79016 0.857443,-1.98181 1.671746,-3.75569 1.80956,-3.94194 0.525624,-0.7104 3.050001,-6.8018 3.050001,-7.35975 0,-0.32202 -0.511237,-1.38851 -1.136081,-2.36999 -3.122391,-4.90453 -6.1105,-12.33803 -7.796199,-19.394552 -2.075554,-8.688496 -2.071486,-21.033298 0.0098,-29.801595 1.019786,-4.296232 3.180534,-10.441048 4.941975,-14.054161 1.497145,-3.070984 2.154929,-4.265734 4.149812,-7.537399 3.395866,-5.569317 9.613424,-12.254692 15.747435,-16.932288 1.76947,-1.349341 3.268014,-2.567642 3.330101,-2.707337 0.06209,-0.139695 0.27868,-0.253991 0.481317,-0.253991 0.202636,0 0.609023,-0.21059 0.903078,-0.467977 1.086721,-0.951205 7.567914,-4.271335 11.710244,-5.99882 3.37742,-1.408494 7.09749,-2.442153 12.85652,-3.57232 3.89732,-0.76482 5.27254,-0.867011 11.73129,-0.871735 6.11203,-0.0045 7.95172,0.115632 11.1756,0.729588 4.53502,0.863648 7.281,1.554292 9.6163,2.418603 0.93129,0.344681 2.11379,0.725223 2.62777,0.845648 0.51397,0.120425 1.01825,0.354467 1.12061,0.520093 0.10236,0.165627 0.41762,0.301139 0.70056,0.301139 0.65384,0 7.46407,3.417883 9.84512,4.941024 0.99285,0.635116 1.94191,1.154757 2.10903,1.154757 0.16712,0 0.35466,0.114296 0.41675,0.253991 0.0621,0.139695 1.56063,1.359125 3.3301,2.709845 6.24458,4.766788 11.20136,10.074613 15.41694,16.508798 4.32299,6.598135 7.85383,15.021354 9.58211,22.859177 3.18514,14.444776 1.19528,30.331465 -5.47187,43.686432 -4.93305,9.8814 -11.03967,17.32201 -19.52718,23.79291 -1.76947,1.34905 -3.26802,2.56711 -3.3301,2.70681 -0.0621,0.13969 -0.24963,0.25398 -0.41675,0.25398 -0.16712,0 -1.11618,0.51965 -2.10903,1.15476 -2.84079,1.81724 -8.92559,4.76665 -12.26214,5.94368 -3.99411,1.40901 -5.85153,1.8983 -11.16325,2.94068 -3.90154,0.76565 -5.26143,0.86639 -11.69593,0.86639 -6.4836,0 -7.77759,-0.0974 -11.81446,-0.8895 -2.49337,-0.48922 -4.65481,-0.96453 -4.8032,-1.05624 -0.14839,-0.0917 -0.92766,-0.29973 -1.73171,-0.46225 -0.80405,-0.16253 -2.52868,-0.70435 -3.8325,-1.20405 -1.30382,-0.49969 -2.75156,-1.0297 -3.21721,-1.17778 -0.46565,-0.14808 -2.11506,-0.88617 -3.66536,-1.64019 l -2.81872,-1.37095 -2.261094,0.6584 c -1.243605,0.36213 -3.023074,0.88141 -3.954373,1.15396 -0.931301,0.27256 -2.760035,0.80638 -4.063855,1.18627 -1.303819,0.3799 -3.056356,0.89303 -3.894526,1.14029 -6.164833,1.81862 -12.800934,3.47479 -14.731471,3.67653 -0.74504,0.0779 -1.81499,0.0412 -2.377667,-0.0814 z M 142.8972,134.26516 c 9.84218,-1.72208 18.06792,-5.36645 25.58194,-11.33394 6.19176,-4.91739 11.46,-11.06572 14.2211,-16.59683 0.37173,-0.74465 0.9191,-1.73491 1.21637,-2.20056 0.69297,-1.08549 2.7612,-6.296577 3.62903,-9.143671 3.06103,-10.042348 3.06103,-22.129829 0,-32.172177 -0.86783,-2.847091 -2.93606,-8.058179 -3.62903,-9.143671 -0.29727,-0.465651 -0.84464,-1.455902 -1.21637,-2.200564 -3.71944,-7.450875 -11.65756,-15.604718 -20.22326,-20.772825 -15.45264,-9.32334 -34.99991,-10.448881 -51.8317,-2.984494 -7.37247,3.269469 -15.668954,9.757308 -20.926042,16.364136 -1.799108,2.261023 -5.396691,7.862832 -5.396691,8.403212 0,0.131638 -0.280673,0.643855 -0.623718,1.138256 -0.736851,1.061968 -2.762257,6.079265 -3.71226,9.19595 -4.209281,13.809427 -2.559141,30.323994 4.241517,42.449008 0.610733,1.08889 1.110424,2.02773 1.110424,2.08632 0,0.0586 0.837372,1.3774 1.860825,2.93069 1.737904,2.63762 1.860942,2.95952 1.8626,4.87304 9.79e-4,1.12687 -0.133588,2.19363 -0.299032,2.37058 -0.165443,0.17694 -0.833525,1.54087 -1.484625,3.03095 -1.427913,3.26786 -2.693254,6.06316 -4.007671,8.85344 -0.538993,1.14419 -0.979987,2.17575 -0.979987,2.29237 0,0.25206 1.082181,0.0373 4.063854,-0.80663 1.21069,-0.34265 3.191819,-0.88469 4.402508,-1.20452 2.944603,-0.77788 6.190021,-1.66696 8.496127,-2.32751 3.369591,-0.96516 4.582311,-0.77058 8.869681,1.42313 5.36951,2.74741 10.24284,4.38095 16.3416,5.47771 4.92032,0.88483 13.37137,0.88419 18.43281,-0.001 z"
       id="path317" /><path
       style="fill:#ffffff;stroke:#ffffff;stroke-width:1.27995;stroke-linecap:round;stroke-linejoin:round;paint-order:fill markers stroke"
       d="m 146.29632,109.06623 c -1.76947,-0.44602 -4.05539,-1.13975 -5.07982,-1.54161 -1.02443,-0.40187 -2.28496,-0.88807 -2.80118,-1.08043 -1.52602,-0.56868 -7.44544,-3.81582 -10.02102,-5.49711 -6.9548,-4.539974 -14.76187,-11.87017 -19.5095,-18.31781 -7.6732,-10.420794 -9.811608,-19.845178 -6.17961,-27.234811 0.41324,-0.840766 1.68467,-2.485001 2.82541,-3.653856 4.35392,-4.461224 7.93099,-4.593928 11.97297,-0.444177 2.49513,2.561651 5.42559,9.453615 5.42559,12.760095 0,1.372169 -1.85921,4.953024 -3.48899,6.719842 -1.40275,1.520698 -1.81247,2.928816 -1.2685,4.359574 1.28298,3.374491 8.51575,11.463777 13.05452,14.600473 2.77523,1.917919 9.05718,5.151787 10.61149,5.462648 0.93681,0.187365 1.23306,0.05382 2.23327,-1.006708 0.63425,-0.672499 1.62312,-2.025364 2.19748,-3.006357 2.03583,-3.477146 3.16069,-4.32354 5.74594,-4.32354 5.47582,0 13.22129,4.531881 14.79695,8.657709 1.15823,3.032762 0.0566,6.229378 -3.41148,9.898878 -2.77689,2.93819 -5.69645,4.14141 -10.49976,4.32717 -2.75733,0.10663 -3.9843,-0.0197 -6.60376,-0.67998 z"
       id="path319" /></g></svg>
